<svg width="27" height="24" viewBox="0 0 27 24" fill="none" xmlns="http://www.w3.org/2000/svg">
<path d="M12.833 0.5V5.83301H26.167V23.5H0.5V0.5H12.833ZM2.16699 21.833H5.83301V18.167H2.16699V21.833ZM7.5 21.833H11.167V18.167H7.5V21.833ZM12.833 11.167H15.5V12.833H12.833V16.5H15.5V18.167H12.833V21.833H24.5V7.5H12.833V11.167ZM20.833 16.5V18.167H19.167V16.5H20.833ZM2.16699 16.5H5.83301V12.833H2.16699V16.5ZM7.5 16.5H11.167V12.833H7.5V16.5ZM20.833 11.167V12.833H19.167V11.167H20.833ZM2.16699 11.167H5.83301V7.5H2.16699V11.167ZM7.5 11.167H11.167V7.5H7.5V11.167ZM2.16699 5.83301H5.83301V2.16699H2.16699V5.83301ZM7.5 5.83301H11.167V2.16699H7.5V5.83301Z" fill="black" stroke="#0B70F8"/>
</svg>
