<svg width="27" height="27" viewBox="0 0 27 27" fill="none" xmlns="http://www.w3.org/2000/svg">
<path d="M13.3203 0.5C20.4176 0.500169 26.1668 6.24973 26.167 13.333C26.167 20.4164 20.4177 26.1668 13.3203 26.167C6.23711 26.167 0.5 20.4175 0.5 13.333C0.500175 6.24865 6.23721 0.5 13.3203 0.5ZM10.3076 18.8105C10.8964 20.7686 11.7863 22.5896 12.9219 24.2314L13.333 24.8252L13.7441 24.2314C14.8797 22.5896 15.7696 20.7686 16.3584 18.8105L16.5527 18.167H10.1143L10.3076 18.8105ZM3.67383 18.917C5.01383 21.2341 7.1495 23.0073 9.71777 23.8867L10.9277 24.3008L10.3203 23.1758C9.54112 21.7343 8.94166 20.1727 8.52441 18.543L8.42773 18.167H3.24023L3.67383 18.917ZM18.1426 18.543C17.7253 20.1728 17.1259 21.7343 16.3467 23.1758L15.7383 24.3008L16.9482 23.8867C19.5177 23.007 21.653 21.2198 22.9922 18.918L23.4297 18.167H18.2383L18.1426 18.543ZM2.52832 10.5449C2.30706 11.4299 2.16702 12.3649 2.16699 13.333C2.16699 14.3012 2.30706 15.236 2.52832 16.1211L2.62305 16.5H8.08398L8.0166 15.9395C7.91105 15.0686 7.83301 14.2108 7.83301 13.333C7.83303 12.4552 7.91104 11.5975 8.0166 10.7266L8.08398 10.167H2.62305L2.52832 10.5449ZM9.71777 10.5977C9.59641 11.4742 9.50002 12.3935 9.5 13.333C9.5 14.2729 9.59663 15.179 9.71777 16.0674L9.77734 16.5H16.8896L16.9492 16.0674C17.0704 15.179 17.167 14.2729 17.167 13.333C17.167 12.3935 17.0696 11.4742 16.9482 10.5977L16.8887 10.167H9.77734L9.71777 10.5977ZM18.6504 10.7266C18.756 11.5975 18.833 12.4552 18.833 13.333C18.833 14.2108 18.7559 15.0686 18.6504 15.9395L18.582 16.5H24.0439L24.1387 16.1211C24.3599 15.236 24.5 14.3012 24.5 13.333C24.5 12.3649 24.3599 11.4299 24.1387 10.5449L24.0439 10.167H18.582L18.6504 10.7266ZM9.71777 2.78027C7.14954 3.65968 5.01381 5.43295 3.67383 7.75L3.24023 8.5H8.42773L8.52441 8.12402C8.94166 6.49416 9.54107 4.9328 10.3203 3.49121L10.9277 2.36621L9.71777 2.78027ZM12.9219 2.43555C11.7863 4.07734 10.8964 5.8984 10.3076 7.85645L10.1143 8.5H16.5527L16.3584 7.85645C15.7696 5.89837 14.8797 4.07736 13.7441 2.43555L13.333 1.84082L12.9219 2.43555ZM16.3467 3.49121C17.1259 4.93279 17.7253 6.49417 18.1426 8.12402L18.2383 8.5H23.4297L22.9922 7.74902C21.653 5.44722 19.5177 3.66004 16.9482 2.78027L15.7383 2.36621L16.3467 3.49121Z" fill="black" stroke="#0B70F8"/>
</svg>
