<svg width="22" height="22" viewBox="0 0 22 22" fill="none" xmlns="http://www.w3.org/2000/svg">
<path d="M9.29 7.79H12.29C12.57 7.79 12.79 7.57 12.79 7.29V4.79H14.58C15.03 4.79 15.25 4.25 14.93 3.94L11.14 0.15C10.94 -0.05 10.63 -0.05 10.43 0.15L6.64 3.94C6.33 4.25 6.55 4.79 7 4.79H8.79V7.29C8.79 7.57 9.01 7.79 9.29 7.79ZM7.29 8.79H4.79V7C4.79 6.55 4.25 6.33 3.94 6.65L0.15 10.44C-0.05 10.64 -0.05 10.95 0.15 11.15L3.94 14.94C4.25 15.25 4.79 15.03 4.79 14.58V12.79H7.29C7.57 12.79 7.79 12.57 7.79 12.29V9.29C7.79 9.01 7.57 8.79 7.29 8.79ZM21.44 10.44L17.65 6.65C17.33 6.33 16.79 6.55 16.79 7V8.79H14.29C14.01 8.79 13.79 9.01 13.79 9.29V12.29C13.79 12.57 14.01 12.79 14.29 12.79H16.79V14.58C16.79 15.03 17.33 15.25 17.64 14.93L21.43 11.14C21.63 10.95 21.63 10.63 21.44 10.44ZM12.29 13.79H9.29C9.01 13.79 8.79 14.01 8.79 14.29V16.79H7C6.55 16.79 6.33 17.33 6.65 17.64L10.44 21.43C10.64 21.63 10.95 21.63 11.15 21.43L14.94 17.64C15.25 17.33 15.03 16.79 14.59 16.79H12.79V14.29C12.79 14.01 12.57 13.79 12.29 13.79Z" fill="#0B70F8"/>
</svg>
