<svg width="20" height="22" viewBox="0 0 20 22" fill="none" xmlns="http://www.w3.org/2000/svg">
<path d="M2 4H4V5C4 6.1 4.9 7 6 7H12C13.1 7 14 6.1 14 5V4H16V9H18V4C18 2.9 17.1 2 16 2H11.82C11.4 0.84 10.3 0 9 0C7.7 0 6.6 0.84 6.18 2H2C0.9 2 0 2.9 0 4V18C0 19.1 0.9 20 2 20H7V18H2V4ZM9 2C9.55 2 10 2.45 10 3C10 3.55 9.55 4 9 4C8.45 4 8 3.55 8 3C8 2.45 8.45 2 9 2Z" fill="#3D4955"/>
<path d="M19.3 19.9L17.3 17.9C17.88 16.89 18.25 15.67 17.81 14.25C17.28 12.53 15.77 11.2 13.97 11.03C11.1 10.75 8.74 13.1 9.02 15.98C9.2 17.77 10.52 19.29 12.24 19.82C13.67 20.26 14.88 19.89 15.89 19.31L17.89 21.31C18.28 21.7 18.9 21.7 19.29 21.31C19.68 20.92 19.69 20.29 19.3 19.9ZM13.5 18C12.1 18 11 16.9 11 15.5C11 14.1 12.1 13 13.5 13C14.9 13 16 14.1 16 15.5C16 16.9 14.9 18 13.5 18Z" fill="#3D4955"/>
</svg>
