<svg width="24" height="24" viewBox="0 0 24 24" fill="none" xmlns="http://www.w3.org/2000/svg">
<path d="M7.5 10.667C7.50018 13.143 9.52397 15.167 12 15.167C14.476 15.167 16.4998 13.143 16.5 10.667V2.16699H7.5V10.667ZM2.16699 6.66699C2.16713 8.62294 3.43046 10.2691 5.16309 10.8965L5.83301 11.1396V4.83301H2.16699V6.66699ZM18.167 11.1396L18.8369 10.8965C20.5695 10.2691 21.8329 8.62294 21.833 6.66699V4.83301H18.167V11.1396ZM11.167 16.791L10.7656 16.71C8.75691 16.3032 7.09124 14.9091 6.31445 13.0596L6.20215 12.793L5.91602 12.7568L5.63184 12.7148C2.71899 12.2132 0.500158 9.70859 0.5 6.66699V5.33301C0.500178 4.14263 1.47658 3.16699 2.66699 3.16699H5.83301V0.5H18.167V3.16699H21.333C22.5234 3.16699 23.4998 4.14263 23.5 5.33301V6.66699C23.4998 9.80663 21.1353 12.3739 18.084 12.7568L17.7979 12.793L17.6855 13.0596C16.9088 14.9091 15.2431 16.3032 13.2344 16.71L12.833 16.791V21.833H18.167V23.5H5.83301V21.833H11.167V16.791Z" fill="black" stroke="#0B70F8"/>
</svg>
