<svg width="18" height="22" viewBox="0 0 18 22" fill="none" xmlns="http://www.w3.org/2000/svg">
<path d="M12 20H14V18H12V20ZM16 8H18V6H16V8ZM0 4V18C0 19.1 0.9 20 2 20H5C5.55 20 6 19.55 6 19C6 18.45 5.55 18 5 18H3C2.45 18 2 17.55 2 17V5C2 4.45 2.45 4 3 4H5C5.55 4 6 3.55 6 3C6 2.45 5.55 2 5 2H2C0.9 2 0 2.9 0 4ZM16 2V4H18C18 2.9 17.1 2 16 2ZM9 22C9.55 22 10 21.55 10 21V1C10 0.45 9.55 0 9 0C8.45 0 8 0.45 8 1V21C8 21.55 8.45 22 9 22ZM16 16H18V14H16V16ZM12 4H14V2H12V4ZM16 12H18V10H16V12ZM16 20C17.1 20 18 19.1 18 18H16V20Z" fill="#0B70F8"/>
</svg>
