<svg width="14" height="20" viewBox="0 0 14 20" fill="none" xmlns="http://www.w3.org/2000/svg">
<path d="M12 6L2 6C0.9 6 -4.45794e-08 6.9 -5.16862e-08 8L-1.16294e-07 18C-1.23401e-07 19.1 0.9 20 2 20L12 20C13.1 20 14 19.1 14 18L14 8C14 6.9 13.1 6 12 6ZM7 18.5C6.45 18.5 6 18.05 6 17.5L6 17L8 17L8 17.5C8 18.05 7.55 18.5 7 18.5ZM8 16L6 16C6 14.5 3.5 13 3.5 11C3.5 9.07 5.07 7.5 7 7.5C8.93 7.5 10.5 9.07 10.5 11C10.5 13 8 14.5 8 16ZM13 4.5L1 4.5C1 3.67 1.67 3 2.5 3L11.5 3C12.33 3 13 3.67 13 4.5ZM12 1.5L2 1.5C2 0.67 2.67 1.72503e-08 3.5 2.26127e-08L10.5 6.78382e-08C11.33 7.32007e-08 12 0.67 12 1.5Z" fill="black"/>
</svg>
