<svg width="19" height="27" viewBox="0 0 19 27" fill="none" xmlns="http://www.w3.org/2000/svg">
<path d="M2.66699 8.5H16C17.1905 8.5 18.167 9.47647 18.167 10.667V24C18.167 25.1905 17.1905 26.167 16 26.167H2.66699C1.47647 26.167 0.500001 25.1905 0.5 24V10.667C0.5 9.47647 1.47647 8.5 2.66699 8.5ZM7.5 23.333C7.5 24.3424 8.32368 25.1668 9.33301 25.167C10.3425 25.167 11.167 24.3425 11.167 23.333V22.167H7.5V23.333ZM9.33301 9.5C6.48368 9.50018 4.16699 11.8176 4.16699 14.667C4.16713 16.195 5.11942 17.4912 5.9375 18.5547C6.36471 19.1101 6.75808 19.6027 7.05273 20.084C7.34694 20.5645 7.49991 20.9693 7.5 21.333V21.833H11.167V21.333C11.1671 20.9693 11.32 20.5645 11.6143 20.084C11.9089 19.6027 12.3023 19.1101 12.7295 18.5547C13.5476 17.4912 14.4999 16.1949 14.5 14.667C14.5 11.8175 12.1825 9.5 9.33301 9.5ZM3.33301 4.5H15.333C15.9878 4.5 16.5407 4.91689 16.7461 5.5H1.91992C2.12525 4.91688 2.67828 4.50014 3.33301 4.5ZM4.66699 0.5H14C14.6548 0.5 15.2077 0.916835 15.4131 1.5H3.25391C3.45933 0.916888 4.0122 0.5 4.66699 0.5Z" fill="black" stroke="#0B70F8"/>
</svg>
