<svg width="12" height="18" viewBox="0 0 12 18" fill="none" xmlns="http://www.w3.org/2000/svg">
<path d="M-1.01951e-07 15.78L0.25 18L1.87 16.46L4.64 8.86C3.96 8.69 3.36 8.35 2.87 7.88L-1.01951e-07 15.78Z" fill="black"/>
<path d="M8.41 7.88C7.92 8.35 7.31 8.69 6.64 8.86L9.41 16.46L11.03 18L11.29 15.78L8.41 7.88Z" fill="black"/>
<path d="M8.58 5.6C8.88 4.04 7.98 2.66 6.64 2.18L6.64 1C6.64 0.45 6.19 3.99922e-08 5.64 3.64388e-08C5.09 3.28854e-08 4.64 0.45 4.64 1L4.64 2.18C3.48 2.6 2.64 3.7 2.64 5C2.64 6.84 4.3 8.3 6.2 7.95C7.38 7.73 8.35 6.78 8.58 5.6ZM5.64 6C5.09 6 4.64 5.55 4.64 5C4.64 4.45 5.09 4 5.64 4C6.19 4 6.64 4.45 6.64 5C6.64 5.55 6.19 6 5.64 6Z" fill="black"/>
</svg>
