<svg width="22" height="22" viewBox="0 0 22 22" fill="none" xmlns="http://www.w3.org/2000/svg">
<path d="M9.29 7.79L12.29 7.79C12.57 7.79 12.79 7.57 12.79 7.29L12.79 4.79L14.58 4.79C15.03 4.79 15.25 4.25 14.93 3.94L11.14 0.15C10.94 -0.0499999 10.63 -0.0499999 10.43 0.15L6.64 3.94C6.33 4.25 6.55 4.79 7 4.79L8.79 4.79L8.79 7.29C8.79 7.57 9.01 7.79 9.29 7.79ZM7.29 8.79L4.79 8.79L4.79 7C4.79 6.55 4.25 6.33 3.94 6.65L0.15 10.44C-0.0500001 10.64 -0.0500001 10.95 0.15 11.15L3.94 14.94C4.25 15.25 4.79 15.03 4.79 14.58L4.79 12.79L7.29 12.79C7.57 12.79 7.79 12.57 7.79 12.29L7.79 9.29C7.79 9.01 7.57 8.79 7.29 8.79ZM21.44 10.44L17.65 6.65C17.33 6.33 16.79 6.55 16.79 7L16.79 8.79L14.29 8.79C14.01 8.79 13.79 9.01 13.79 9.29L13.79 12.29C13.79 12.57 14.01 12.79 14.29 12.79L16.79 12.79L16.79 14.58C16.79 15.03 17.33 15.25 17.64 14.93L21.43 11.14C21.63 10.95 21.63 10.63 21.44 10.44ZM12.29 13.79L9.29 13.79C9.01 13.79 8.79 14.01 8.79 14.29L8.79 16.79L7 16.79C6.55 16.79 6.33 17.33 6.65 17.64L10.44 21.43C10.64 21.63 10.95 21.63 11.15 21.43L14.94 17.64C15.25 17.33 15.03 16.79 14.59 16.79L12.79 16.79L12.79 14.29C12.79 14.01 12.57 13.79 12.29 13.79Z" fill="black"/>
</svg>
