<svg width="16" height="20" viewBox="0 0 16 20" fill="none" xmlns="http://www.w3.org/2000/svg">
<path d="M15.41 5.41L10.58 0.58C10.21 0.21 9.7 6.26696e-08 9.17 5.92454e-08L2 1.29216e-08C0.9 5.8147e-09 0.0100002 0.9 0.0100002 2L-1.16294e-07 18C-1.23401e-07 19.1 0.89 20 1.99 20L14 20C15.1 20 16 19.1 16 18L16 6.83C16 6.3 15.79 5.79 15.41 5.41ZM6.23 15.29L4.11 13.17C3.72 12.78 3.72 12.15 4.11 11.76C4.5 11.37 5.13 11.37 5.52 11.76L6.93 13.17L10.47 9.63C10.86 9.24 11.49 9.24 11.88 9.63C12.27 10.02 12.27 10.65 11.88 11.04L7.64 15.28C7.26 15.68 6.62 15.68 6.23 15.29ZM10 7C9.45 7 9 6.55 9 6L9 1.5L14.5 7L10 7Z" fill="black"/>
</svg>
