<svg width="18" height="14" viewBox="0 0 18 14" fill="none" xmlns="http://www.w3.org/2000/svg">
<path d="M17 1.09833e-07L16 1.03372e-07C15.45 9.98191e-08 15 0.45 15 1L15 13C15 13.55 15.45 14 16 14L17 14C17.55 14 18 13.55 18 13L18 1C18 0.45 17.55 1.13387e-07 17 1.09833e-07ZM13 8.39902e-08L5 3.23039e-08C4.45 2.87505e-08 4 0.45 4 1L4 13C4 13.55 4.45 14 5 14L13 14C13.55 14 14 13.55 14 13L14 1C14 0.45 13.55 8.75436e-08 13 8.39902e-08ZM2 1.29216e-08L1 6.46078e-09C0.45 2.90735e-09 -2.90735e-09 0.45 -6.46078e-09 1L-8.39902e-08 13C-8.75436e-08 13.55 0.45 14 1 14L2 14C2.55 14 3 13.55 3 13L3 1C3 0.45 2.55 1.6475e-08 2 1.29216e-08Z" fill="black"/>
</svg>
