<svg width="20" height="10" viewBox="0 0 20 10" fill="none" xmlns="http://www.w3.org/2000/svg">
<path d="M19 6L13 6C12.45 6 12 5.55 12 5C12 4.45 12.45 4 13 4L19 4C19.55 4 20 4.45 20 5C20 5.55 19.55 6 19 6ZM19 1.22755e-07L13 8.39902e-08C12.45 8.04367e-08 12 0.45 12 1C12 1.55 12.45 2 13 2L19 2C19.55 2 20 1.55 20 1C20 0.45 19.55 1.26308e-07 19 1.22755e-07ZM13 10L19 10C19.55 10 20 9.55 20 9C20 8.45 19.55 8 19 8L13 8C12.45 8 12 8.45 12 9C12 9.55 12.45 10 13 10ZM10 2L10 8C10 9.1 9.1 10 8 10L2 10C0.9 10 -5.87931e-08 9.1 -5.16862e-08 8L-1.29216e-08 2C-5.8147e-09 0.9 0.9 5.8147e-09 2 1.29216e-08L8 5.16862e-08C9.1 5.87931e-08 10 0.9 10 2ZM7.9 7.2L6.64 5.52C6.44 5.26 6.05 5.25 5.84 5.51L4.5 7.26L3.65 6.23C3.45 5.98 3.07 5.99 2.87 6.24L2.13 7.19C1.87 7.52 2.11 8 2.52 8L7.5 8C7.91 8 8.15 7.53 7.9 7.2Z" fill="black"/>
</svg>
