<svg width="19" height="15" viewBox="0 0 19 15" fill="none" xmlns="http://www.w3.org/2000/svg">
<path d="M11 5C11 5.55 10.55 6 10 6L1 6C0.45 6 -3.58573e-08 5.55 -3.23039e-08 5C-2.87505e-08 4.45 0.45 4 1 4L10 4C10.55 4 11 4.45 11 5ZM-6.46078e-09 1C-1.00142e-08 1.55 0.45 2 1 2L10 2C10.55 2 11 1.55 11 1C11 0.45 10.55 6.81612e-08 10 6.46078e-08L1 6.46078e-09C0.45 2.90735e-09 -2.90735e-09 0.45 -6.46078e-09 1ZM7 9C7 8.45 6.55 8 6 8L1 8C0.45 8 -5.45936e-08 8.45 -5.8147e-08 9C-6.17005e-08 9.55 0.45 10 1 10L6 10C6.55 10 7 9.55 7 9ZM15.01 6.87L15.72 6.16C16.11 5.77 16.74 5.77 17.13 6.16L17.84 6.87C18.23 7.26 18.23 7.89 17.84 8.28L17.13 8.99L15.01 6.87ZM14.3 7.58L9.14 12.74C9.05 12.83 9 12.95 9 13.09L9 14.5C9 14.78 9.22 15 9.5 15L10.91 15C11.04 15 11.17 14.95 11.26 14.85L16.42 9.69L14.3 7.58Z" fill="black"/>
</svg>
