<svg width="160" height="158" viewBox="0 0 160 158" fill="none" xmlns="http://www.w3.org/2000/svg">
<g filter="url(#filter0_d_2093_4721)">
<rect x="32" y="28" width="100" height="94" rx="20" fill="white"/>
<g clip-path="url(#clip0_2093_4721)">
<rect x="44" y="107" width="64" height="40" rx="8" transform="rotate(-90 44 107)" fill="#0B70F8"/>
<rect x="58" y="47" width="12" height="4" rx="2" fill="white"/>
<rect x="52" y="101" width="24" height="2" rx="1" fill="white"/>
</g>
<rect x="88" y="72" width="30" height="32" rx="8" transform="rotate(-90 88 72)" fill="#0B70F8"/>
<rect x="98" y="46" width="12" height="4" rx="2" fill="white"/>
<rect x="88" y="107" width="32" height="32" rx="8" transform="rotate(-90 88 107)" fill="#0B70F8"/>
<rect x="94" y="101" width="19" height="2" rx="1" fill="white"/>
</g>
<defs>
<filter id="filter0_d_2093_4721" x="0" y="0" width="164" height="158" filterUnits="userSpaceOnUse" color-interpolation-filters="sRGB">
<feFlood flood-opacity="0" result="BackgroundImageFix"/>
<feColorMatrix in="SourceAlpha" type="matrix" values="0 0 0 0 0 0 0 0 0 0 0 0 0 0 0 0 0 0 127 0" result="hardAlpha"/>
<feMorphology radius="12" operator="dilate" in="SourceAlpha" result="effect1_dropShadow_2093_4721"/>
<feOffset dy="4"/>
<feGaussianBlur stdDeviation="10"/>
<feComposite in2="hardAlpha" operator="out"/>
<feColorMatrix type="matrix" values="0 0 0 0 0 0 0 0 0 0 0 0 0 0 0 0 0 0 0.06 0"/>
<feBlend mode="normal" in2="BackgroundImageFix" result="effect1_dropShadow_2093_4721"/>
<feBlend mode="normal" in="SourceGraphic" in2="effect1_dropShadow_2093_4721" result="shape"/>
</filter>
<clipPath id="clip0_2093_4721">
<rect x="44" y="107" width="64" height="40" rx="8" transform="rotate(-90 44 107)" fill="white"/>
</clipPath>
</defs>
</svg>
