<svg width="160" height="158" viewBox="0 0 160 158" fill="none" xmlns="http://www.w3.org/2000/svg">
<g filter="url(#filter0_d_2093_4634)">
<rect x="32" y="28" width="100" height="94" rx="20" fill="white"/>
<rect x="68" y="67" width="24" height="52" rx="8" transform="rotate(-90 68 67)" fill="#0B70F8"/>
<rect x="68" y="92" width="23" height="26" rx="4" transform="rotate(-90 68 92)" fill="white"/>
<rect x="68.2" y="91.8" width="22.6" height="25.6" rx="3.8" transform="rotate(-90 68.2 91.8)" stroke="#F5F5F5" stroke-opacity="0.960784" stroke-width="0.4"/>
<rect x="96" y="92" width="23" height="24" rx="4" transform="rotate(-90 96 92)" fill="white"/>
<rect x="96.2" y="91.8" width="22.6" height="23.6" rx="3.8" transform="rotate(-90 96.2 91.8)" stroke="#F5F5F5" stroke-opacity="0.960784" stroke-width="0.4"/>
<rect x="44" y="107" width="64" height="20" rx="4" transform="rotate(-90 44 107)" fill="#0B70F8" fill-opacity="0.25"/>
<rect x="68" y="108" width="15" height="52" rx="4" transform="rotate(-90 68 108)" fill="#0B70F8" fill-opacity="0.1"/>
</g>
<defs>
<filter id="filter0_d_2093_4634" x="0" y="0" width="164" height="158" filterUnits="userSpaceOnUse" color-interpolation-filters="sRGB">
<feFlood flood-opacity="0" result="BackgroundImageFix"/>
<feColorMatrix in="SourceAlpha" type="matrix" values="0 0 0 0 0 0 0 0 0 0 0 0 0 0 0 0 0 0 127 0" result="hardAlpha"/>
<feMorphology radius="12" operator="dilate" in="SourceAlpha" result="effect1_dropShadow_2093_4634"/>
<feOffset dy="4"/>
<feGaussianBlur stdDeviation="10"/>
<feComposite in2="hardAlpha" operator="out"/>
<feColorMatrix type="matrix" values="0 0 0 0 0 0 0 0 0 0 0 0 0 0 0 0 0 0 0.06 0"/>
<feBlend mode="normal" in2="BackgroundImageFix" result="effect1_dropShadow_2093_4634"/>
<feBlend mode="normal" in="SourceGraphic" in2="effect1_dropShadow_2093_4634" result="shape"/>
</filter>
</defs>
</svg>
