<svg width="100" height="90" viewBox="0 0 100 90" fill="none" xmlns="http://www.w3.org/2000/svg">
<rect width="100" height="90" rx="20" fill="white"/>
<path d="M50 17C44.48 17 40 21.48 40 27C40 32.52 44.48 37 50 37C55.52 37 60 32.52 60 27C60 21.48 55.52 17 50 17ZM50 21C51.93 21 53.5 22.57 53.5 24.5C53.5 26.43 51.93 28 50 28C48.07 28 46.5 26.43 46.5 24.5C46.5 22.57 48.07 21 50 21ZM50 35C47.97 35 45.57 34.18 43.86 32.12C45.55 30.8 47.68 30 50 30C52.32 30 54.45 30.8 56.14 32.12C54.43 34.18 52.03 35 50 35Z" fill="#0B70F8"/>
<rect x="18" y="43" width="64" height="8" rx="4" fill="#0B70F8"/>
<rect x="18" y="55" width="64" height="8" rx="4" fill="#0B70F8" fill-opacity="0.5"/>
<rect x="18" y="67" width="64" height="8" rx="4" fill="#0B70F8" fill-opacity="0.25"/>
</svg>
