<svg width="32" height="20" viewBox="0 0 32 20" fill="none" xmlns="http://www.w3.org/2000/svg">
<path d="M25.66 20C24.64 20 23.7 19.42 23.26 18.52L20.42 12.84C20.14 12.28 20 11.68 20 11.06V2C20 0.9 20.9 0 22 0H30C31.1 0 32 0.9 32 2V10C32 11.1 31.1 12 30 12H26L28.06 16.12C28.96 17.9 27.66 20 25.66 20ZM5.66 20C4.64 20 3.7 19.42 3.26 18.52L0.419998 12.84C0.139998 12.28 0 11.68 0 11.06V2C0 0.9 0.9 0 2 0H10C11.1 0 12 0.9 12 2V10C12 11.1 11.1 12 10 12H6L8.06 16.12C8.96 17.9 7.66 20 5.66 20Z" fill="#0B70F8"/>
</svg>
